<?xml version="1.0" encoding="UTF-8"?>
<!DOCTYPE svg PUBLIC "-//W3C//DTD SVG 1.1//EN" "http://www.w3.org/Graphics/SVG/1.1/DTD/svg11.dtd">
<!-- Creator: CorelDRAW -->
<svg xmlns="http://www.w3.org/2000/svg" xml:space="preserve" width="67.7334mm" height="79.375mm" version="1.1" style="shape-rendering:geometricPrecision; text-rendering:geometricPrecision; image-rendering:optimizeQuality; fill-rule:evenodd; clip-rule:evenodd"
viewBox="0 0 6773.34 7937.5"
 xmlns:xlink="http://www.w3.org/1999/xlink"
 xmlns:xodm="http://www.corel.com/coreldraw/odm/2003">
 <defs>
  <style type="text/css">
   <![CDATA[
    .fil3 {fill:#0D1117;fill-rule:nonzero}
    .fil1 {fill:#214AFF;fill-rule:nonzero}
    .fil2 {fill:#FEFEFE;fill-rule:nonzero}
    .fil0 {fill:white;fill-rule:nonzero}
   ]]>
  </style>
 </defs>
 <g id="Layer_x0020_1">
  <metadata id="CorelCorpID_0Corel-Layer"/>
  <path class="fil0" d="M727.61 4302.13l5318.12 0c402.17,0 727.6,325.44 727.6,727.6l0 2180.17c0,402.17 -325.44,727.6 -727.6,727.6l-5318.12 0c-402.17,0 -727.61,-325.44 -727.61,-727.6l0 -2180.17c0,-402.17 325.44,-727.6 727.61,-727.6z"/>
  <path class="fil1" d="M1637.77 0l3497.8 0c904.87,0 1637.77,732.9 1637.77,1637.77l0 3497.79c0,904.88 -732.9,1637.77 -1637.77,1637.77l-3497.8 0c-904.87,0 -1637.77,-732.89 -1637.77,-1637.77l0 -3497.79c0,-904.87 732.9,-1637.77 1637.77,-1637.77z"/>
  <path class="fil2" d="M3083.72 1981.87c-14.38,-18.53 -29.69,-28.76 -48.22,-28.76 -13.01,1.1 -25.7,5.36 -36.75,12.47 -136.51,106.67 -322.24,559.21 -475.05,1156.31l135.75 0.98c266.7,3.17 542.64,6.23 814.59,10.22 -59.93,-232.85 -128.97,-467.02 -202.51,-696.71 -91.53,-275.94 -152.98,-400 -188.13,-454.45l0.32 -0.06zm302.95 -1150.23c-1411.03,0 -2555.03,1144 -2555.03,2555.03 0,1411.03 1144,2555.03 2555.03,2555.03 1411.03,0 2555.03,-1144 2555.03,-2555.03 0,-1411.03 -1144.05,-2555.03 -2555.03,-2555.03l0 0zm1885.93 2524.2c-7.82,30.12 -25.04,57.07 -49.1,76.86l-9.23 6.08 -3.01 2.24 -6.07 3.98 -5.25 3.17c-19.57,10.18 -41.23,15.43 -63.15,15.43 -0.16,0 -0.33,0 -0.5,0l-1211.02 0.05c9.23,39.92 20.77,86.06 31.76,135.43 66.75,286.33 242.26,1047.55 429.9,1047.55l10.06 0c145.82,0 220.83,-211.25 384.85,-674.18l2.24 -5.09c26.85,-73.92 56.54,-158.12 88.3,-247.34l8.31 -22.36c9.19,-22.04 30.57,-36.36 54.29,-36.36 31.66,0 57.64,25.15 58.56,56.81 0,0.05 0,0.1 0,0.16 0,5.47 -0.71,10.88 -2.08,16.12l-7.16 22.37c-17.55,55.39 -34.66,130.45 -56.53,217.66 -97.43,404.31 -245.27,1014.97 -622.79,1014.97l-3.29 0.05c-244.17,-2.08 -389.77,-392.02 -452.53,-559.2 -116.9,-312.03 -205.03,-643.58 -290.32,-965.49l-1112.13 0 -230.89 739.85 -3.17 -3.17c-21.59,33.35 -58.77,53.52 -98.63,53.52 -64.29,0 -116.73,-51.61 -117.71,-115.91l0 -4.15 14.38 -84.14c31.93,-189.89 70.91,-388.03 113.83,-587.05l-471.9 0.12 -2.24 -2.08c-86.65,-12.9 -151,-87.32 -151,-175.07 0,-85.4 61.01,-158.66 145.05,-174.03 18.31,-2.13 36.74,-2.84 55.27,-2.07l22.36 0c148.82,2.07 306.94,5.24 481.3,7.16 245.27,-997.42 529.35,-1504.41 845.37,-1505.39 338.55,0 590.04,770.46 791.08,1524.69l0.98 3.17c412.63,8.15 853.84,20.45 1281.68,51.12l18.37 2.24c7.15,0 13.23,0.99 20.77,2.08l1.91 0.05 2.24 0.99 0.93 -0.06c72.99,14.39 121.38,86.38 105.85,159.22l0.06 0zm0 0l0 0 0 0z"/>
  <g id="_1489282815040">
   <path class="fil3" d="M1276.45 7714.38c2.32,6.26 3.48,10.95 3.48,14.08 0,5.63 -1.89,10.48 -5.66,14.55 -3.76,4.07 -8.25,6.1 -13.47,6.1l-109.58 0c-9.86,0 -17.54,-2.35 -23.06,-7.04 -5.5,-4.69 -9.12,-10.17 -10.86,-16.43l-24.35 -77.9 -231.35 0 -24.35 77.9c-1.73,6.26 -5.37,11.74 -10.87,16.43 -5.51,4.69 -13.19,7.04 -23.04,7.04l-109.59 0c-5.22,0 -9.72,-2.03 -13.48,-6.1 -3.77,-4.07 -5.65,-8.92 -5.65,-14.55 0,-3.13 1.16,-7.82 3.48,-14.08l189.59 -591.35c2.9,-8.76 7.54,-16.11 13.91,-22.06 6.39,-5.94 14.79,-8.91 25.22,-8.91l140.9 0c10.44,0 18.84,2.97 25.22,8.91 6.38,5.95 11.02,13.3 13.92,22.06l189.59 591.35zm-228.73 -212.13l-70.44 -225.28 -70.46 225.28 140.9 0zm463.55 -89.18l0 310.7c0,6.88 -2.32,12.82 -6.96,17.83 -4.64,5.01 -10.14,7.51 -16.53,7.51l-113.92 0c-6.38,0 -11.89,-2.5 -16.53,-7.51 -4.64,-5.01 -6.95,-10.95 -6.95,-17.83l0 -606.37c0,-6.88 2.31,-12.83 6.95,-17.84 4.64,-5 10.15,-7.5 16.53,-7.5l100.88 0c16.23,0 28.7,8.44 37.39,25.34l140.9 260 140.89 -260c8.7,-16.9 21.17,-25.34 37.4,-25.34l100.88 0c6.39,0 11.89,2.5 16.53,7.5 4.63,5.01 6.96,10.96 6.96,17.84l0 606.37c0,6.88 -2.33,12.82 -6.96,17.83 -4.64,5.01 -10.14,7.51 -16.53,7.51l-113.93 0c-6.37,0 -11.88,-2.5 -16.53,-7.51 -4.63,-5.01 -6.94,-10.95 -6.94,-17.83l0 -310.7 -81.76 154.88c-4.06,6.88 -8.55,12.52 -13.48,16.9 -4.93,4.38 -11.16,6.57 -18.7,6.57l-55.66 0c-7.54,0 -13.77,-2.19 -18.7,-6.57 -4.93,-4.38 -9.42,-10.02 -13.48,-16.9l-81.75 -154.88zm838.39 -321.01c75.37,0 134.36,18.61 176.99,55.84 42.61,37.24 63.92,91.84 63.92,163.8 0,71.96 -21.31,126.72 -63.92,164.26 -42.63,37.55 -101.62,56.32 -176.99,56.32l-111.32 0 0 191.49c0,6.88 -2.32,12.82 -6.96,17.83 -4.64,5.01 -10.14,7.51 -16.53,7.51l-113.92 0c-6.38,0 -11.89,-2.5 -16.53,-7.51 -4.64,-5.01 -6.95,-10.95 -6.95,-17.83l0 -606.37c0,-6.88 2.31,-12.83 6.95,-17.84 4.64,-5 10.15,-7.5 16.53,-7.5l248.73 0zm-4.35 293.79c25.51,0 45.95,-6.1 61.31,-18.3 15.37,-12.2 23.05,-30.82 23.05,-55.85 0,-25.03 -7.68,-43.65 -23.05,-55.85 -15.36,-12.2 -35.8,-18.3 -61.31,-18.3l-106.97 0 0 148.3 106.97 0zm754.89 213.08c6.39,0 11.89,2.5 16.53,7.51 4.64,5 6.96,10.95 6.96,17.83l0 99.5c0,6.88 -2.32,12.82 -6.96,17.83 -4.64,5.01 -10.14,7.51 -16.53,7.51l-402.66 0c-6.38,0 -11.89,-2.5 -16.53,-7.51 -4.63,-5.01 -6.95,-10.95 -6.95,-17.83l0 -606.37c0,-6.88 2.32,-12.83 6.95,-17.84 4.64,-5 10.15,-7.5 16.53,-7.5l113.93 0c6.38,0 11.88,2.5 16.53,7.5 4.63,5.01 6.95,10.96 6.95,17.84l0 481.53 265.25 0zm121.77 150.18c-6.37,0 -11.89,-2.5 -16.53,-7.51 -4.63,-5.01 -6.95,-10.95 -6.95,-17.83l0 -606.37c0,-6.88 2.32,-12.83 6.95,-17.84 4.64,-5 10.16,-7.5 16.53,-7.5l113.93 0c6.38,0 11.89,2.5 16.53,7.5 4.63,5.01 6.96,10.96 6.96,17.84l0 606.37c0,6.88 -2.33,12.82 -6.96,17.83 -4.64,5.01 -10.15,7.51 -16.53,7.51l-113.93 0zm706.2 -657.05c6.38,0 11.88,2.5 16.53,7.5 4.63,5.01 6.95,10.96 6.95,17.84l0 99.5c0,6.88 -2.32,12.82 -6.95,17.83 -4.65,5.01 -10.15,7.51 -16.53,7.51l-153.07 0 0 481.53c0,6.88 -2.32,12.82 -6.96,17.83 -4.64,5.01 -10.14,7.51 -16.52,7.51l-113.94 0c-6.37,0 -11.88,-2.5 -16.52,-7.51 -4.64,-5.01 -6.95,-10.95 -6.95,-17.83l0 -481.53 -153.07 0c-6.38,0 -11.89,-2.5 -16.53,-7.51 -4.63,-5.01 -6.96,-10.95 -6.96,-17.83l0 -99.5c0,-6.88 2.33,-12.83 6.96,-17.84 4.64,-5 10.15,-7.5 16.53,-7.5l467.03 0zm600.96 0c6.38,0 11.89,2.5 16.52,7.5 4.64,5.01 6.96,10.96 6.96,17.84l0 374.52c0,56.32 -11.02,104.5 -33.04,144.55 -22.03,40.05 -52.92,70.4 -92.63,91.05 -39.72,20.65 -85.95,30.98 -138.72,30.98 -53.34,0 -99.86,-10.33 -139.58,-30.98 -39.71,-20.65 -70.45,-51 -92.19,-91.05 -21.74,-40.05 -32.62,-88.23 -32.62,-144.55l0 -374.52c0,-6.88 2.33,-12.83 6.96,-17.84 4.64,-5 10.15,-7.5 16.53,-7.5l113.93 0c6.38,0 11.88,2.5 16.53,7.5 4.63,5.01 6.96,10.96 6.96,17.84l0 370.77c0,38.17 8.83,67.73 26.51,88.7 17.69,20.96 43.35,31.44 76.97,31.44 33.63,0 59.29,-10.48 76.98,-31.44 17.68,-20.97 26.52,-50.53 26.52,-88.7l0 -370.77c0,-6.88 2.32,-12.83 6.95,-17.84 4.65,-5 10.15,-7.5 16.53,-7.5l113.93 0zm667.93 261.88c1.17,35.04 1.74,57.57 1.74,67.58 0,10.01 -0.57,31.92 -1.74,65.71 -1.73,51.31 -14.06,96.68 -36.96,136.1 -22.9,39.42 -54.35,70.24 -94.36,92.46 -40.01,22.21 -86.39,33.32 -139.16,33.32l-234.81 0c-6.38,0 -11.89,-2.5 -16.53,-7.51 -4.63,-5.01 -6.95,-10.95 -6.95,-17.83l0 -606.37c0,-6.88 2.32,-12.83 6.95,-17.84 4.64,-5 10.15,-7.5 16.53,-7.5l230.47 0c52.76,0 99.58,11.1 140.45,33.32 40.88,22.21 73.06,53.19 96.54,92.92 23.49,39.74 36.1,84.95 37.83,135.64zm-367.88 -111.7l0 356.69 93.06 0c73.06,0 111.03,-35.99 113.93,-107.95 1.16,-36.29 1.74,-60.07 1.74,-71.34 0,-12.51 -0.58,-35.66 -1.74,-69.46 -1.74,-35.66 -12.62,-62.57 -32.61,-80.72 -20,-18.15 -48.56,-27.22 -85.67,-27.22l-88.71 0zm628.79 251.56l248.74 0c6.37,0 11.88,-2.51 16.52,-7.51 4.64,-5.01 6.95,-10.95 6.95,-17.84l0 -99.49c0,-6.89 -2.31,-12.83 -6.95,-17.84 -4.64,-5 -10.15,-7.51 -16.52,-7.51l-248.74 0 0 -101.37 267.87 0c6.37,0 11.89,-2.5 16.52,-7.51 4.64,-5.01 6.96,-10.95 6.96,-17.83l0 -99.5c0,-6.88 -2.32,-12.83 -6.96,-17.84 -4.63,-5 -10.15,-7.5 -16.52,-7.5l-405.28 0c-6.38,0 -11.89,2.5 -16.53,7.5 -4.63,5.01 -6.95,10.96 -6.95,17.84l0 606.37c0,6.88 2.32,12.82 6.95,17.83 4.64,5.01 10.15,7.51 16.53,7.51l412.24 0c6.37,0 11.88,-2.5 16.52,-7.51 4.64,-5.01 6.96,-10.95 6.96,-17.83l0 -99.5c0,-6.88 -2.32,-12.83 -6.96,-17.83 -4.64,-5.01 -10.15,-7.51 -16.52,-7.51l-274.83 0 0 -105.13z"/>
  </g>
 </g>
</svg>
