<?xml version="1.0" encoding="UTF-8"?>
<!DOCTYPE svg PUBLIC "-//W3C//DTD SVG 1.1//EN" "http://www.w3.org/Graphics/SVG/1.1/DTD/svg11.dtd">
<!-- Creator: CorelDRAW -->
<svg xmlns="http://www.w3.org/2000/svg" xml:space="preserve" width="67.7334mm" height="79.375mm" version="1.1" style="shape-rendering:geometricPrecision; text-rendering:geometricPrecision; image-rendering:optimizeQuality; fill-rule:evenodd; clip-rule:evenodd"
viewBox="0 0 6773.34 7937.5"
 xmlns:xlink="http://www.w3.org/1999/xlink"
 xmlns:xodm="http://www.corel.com/coreldraw/odm/2003">
 <defs>
  <style type="text/css">
   <![CDATA[
    .fil3 {fill:#FEFEFE;fill-rule:nonzero}
    .fil2 {fill:#0D1117;fill-rule:nonzero}
    .fil1 {fill:#172B4D;fill-rule:nonzero}
    .fil0 {fill:white;fill-rule:nonzero}
   ]]>
  </style>
 </defs>
 <g id="Layer_x0020_1">
  <metadata id="CorelCorpID_0Corel-Layer"/>
  <g id="_2794349650896">
   <path class="fil0" d="M727.61 4302.13l5318.12 0c402.17,0 727.6,325.44 727.6,727.6l0 2180.17c0,402.17 -325.44,727.6 -727.6,727.6l-5318.12 0c-402.17,0 -727.61,-325.44 -727.61,-727.6l0 -2180.17c0,-402.17 325.44,-727.6 727.61,-727.6z"/>
   <path class="fil1" d="M1637.77 0l3497.8 0c904.87,0 1637.77,732.9 1637.77,1637.77l0 3497.79c0,904.88 -732.9,1637.77 -1637.77,1637.77l-3497.8 0c-904.87,0 -1637.77,-732.89 -1637.77,-1637.77l0 -3497.79c0,-904.87 732.9,-1637.77 1637.77,-1637.77z"/>
   <path class="fil2" d="M2028.73 7092.06c6.39,0 11.89,2.5 16.53,7.5 4.64,5.01 6.96,10.96 6.96,17.84l0 99.5c0,6.88 -2.32,12.82 -6.96,17.83 -4.64,5.01 -10.14,7.51 -16.53,7.51l-260.03 0 0 128.59 242.64 0c6.38,0 11.89,2.51 16.52,7.51 4.64,5.01 6.96,10.95 6.96,17.84l0 99.49c0,6.89 -2.32,12.83 -6.96,17.84 -4.63,5 -10.14,7.51 -16.52,7.51l-242.64 0 0 202.75c0,6.88 -2.33,12.82 -6.96,17.83 -4.64,5.01 -10.15,7.51 -16.53,7.51l-113.93 0c-6.37,0 -11.89,-2.5 -16.53,-7.51 -4.63,-5.01 -6.95,-10.95 -6.95,-17.83l0 -606.37c0,-6.88 2.32,-12.83 6.95,-17.84 4.64,-5 10.16,-7.5 16.53,-7.5l397.45 0zm367.03 -9.39c55.07,0 102.62,11.26 142.62,33.79 40.01,22.53 70.88,53.03 92.63,91.52 21.74,38.48 33.77,81.5 36.08,129.06 1.17,17.52 1.75,45.68 1.75,84.48 0,38.17 -0.58,65.71 -1.75,82.6 -2.31,47.56 -14.34,90.58 -36.08,129.07 -21.75,38.48 -52.62,68.99 -92.63,91.52 -40,22.52 -87.55,33.79 -142.62,33.79 -55.09,0 -102.64,-11.27 -142.64,-33.79 -40,-22.53 -70.88,-53.04 -92.62,-91.52 -21.75,-38.49 -33.78,-81.51 -36.09,-129.07 -1.16,-33.79 -1.74,-61.32 -1.74,-82.6 0,-21.27 0.58,-49.43 1.74,-84.48 2.31,-47.56 14.34,-90.58 36.09,-129.06 21.74,-38.49 52.62,-68.99 92.62,-91.52 40,-22.53 87.55,-33.79 142.64,-33.79zm110.44 259.07c-2.89,-33.17 -13.48,-59.61 -31.74,-79.32 -18.27,-19.71 -44.5,-29.57 -78.7,-29.57 -34.21,0 -60.45,9.86 -78.71,29.57 -18.27,19.71 -28.85,46.15 -31.75,79.32 -1.74,20.65 -2.61,46.62 -2.61,77.9 0,30.67 0.87,57.26 2.61,79.79 2.9,33.16 13.48,59.6 31.75,79.32 18.26,19.71 44.5,29.56 78.71,29.56 34.2,0 60.43,-9.85 78.7,-29.56 18.26,-19.72 28.85,-46.16 31.74,-79.32 1.74,-22.53 2.61,-49.12 2.61,-79.79 0,-31.28 -0.87,-57.25 -2.61,-77.9zm521.82 -249.68c77.7,0 138,17.99 180.9,53.97 42.91,35.98 64.36,89.64 64.36,160.98 0,90.73 -34.5,153.31 -103.5,187.73l107.85 223.39c1.73,3.76 2.61,7.2 2.61,10.33 0,5.63 -1.89,10.48 -5.66,14.55 -3.77,4.07 -8.26,6.1 -13.48,6.1l-118.28 0c-10.43,0 -18.26,-2.35 -23.48,-7.04 -5.22,-4.69 -9.56,-10.79 -13.04,-18.3l-96.54 -200.87 -80.01 0 0 200.87c0,6.88 -2.32,12.82 -6.96,17.83 -4.64,5.01 -10.14,7.51 -16.53,7.51l-113.92 0c-6.38,0 -11.89,-2.5 -16.53,-7.51 -4.64,-5.01 -6.95,-10.95 -6.95,-17.83l0 -606.37c0,-6.88 2.31,-12.83 6.95,-17.84 4.64,-5 10.15,-7.5 16.53,-7.5l235.68 0zm0 284.41c56.24,0 84.36,-23.16 84.36,-69.46 0,-46.31 -28.12,-69.46 -84.36,-69.46l-98.27 0 0 138.92 98.27 0zm506.17 36.6l0 310.7c0,6.88 -2.32,12.82 -6.96,17.83 -4.64,5.01 -10.14,7.51 -16.53,7.51l-113.92 0c-6.38,0 -11.89,-2.5 -16.53,-7.51 -4.64,-5.01 -6.95,-10.95 -6.95,-17.83l0 -606.37c0,-6.88 2.31,-12.83 6.95,-17.84 4.64,-5 10.15,-7.5 16.53,-7.5l100.88 0c16.23,0 28.7,8.44 37.39,25.34l140.9 260 140.89 -260c8.7,-16.9 21.17,-25.34 37.4,-25.34l100.88 0c6.39,0 11.89,2.5 16.53,7.5 4.63,5.01 6.96,10.96 6.96,17.84l0 606.37c0,6.88 -2.33,12.82 -6.96,17.83 -4.64,5.01 -10.14,7.51 -16.53,7.51l-113.93 0c-6.37,0 -11.88,-2.5 -16.53,-7.51 -4.63,-5.01 -6.94,-10.95 -6.94,-17.83l0 -310.7 -81.76 154.88c-4.06,6.88 -8.56,12.52 -13.48,16.9 -4.93,4.38 -11.16,6.57 -18.7,6.57l-55.66 0c-7.54,0 -13.77,-2.19 -18.7,-6.57 -4.93,-4.38 -9.42,-10.02 -13.48,-16.9l-81.75 -154.88zm589.66 336.04c-6.38,0 -11.89,-2.5 -16.53,-7.51 -4.64,-5.01 -6.95,-10.95 -6.95,-17.83l0 -606.37c0,-6.88 2.31,-12.83 6.95,-17.84 4.64,-5 10.15,-7.5 16.53,-7.5l113.92 0c6.39,0 11.89,2.5 16.53,7.5 4.64,5.01 6.96,10.96 6.96,17.84l0 606.37c0,6.88 -2.32,12.82 -6.96,17.83 -4.64,5.01 -10.14,7.51 -16.53,7.51l-113.92 0zm774.89 -30.98c1.74,2.51 2.62,5.95 2.62,10.33 0,5.63 -1.89,10.48 -5.66,14.55 -3.77,4.07 -8.26,6.1 -13.48,6.1l-138.27 0c-7.55,0 -13.92,-1.72 -19.15,-5.16 -5.21,-3.44 -10.72,-8.92 -16.52,-16.43l-164.37 -223.4 0 219.65c0,6.88 -2.32,12.82 -6.96,17.83 -4.64,5.01 -10.14,7.51 -16.52,7.51l-113.93 0c-6.38,0 -11.89,-2.5 -16.53,-7.51 -4.63,-5.01 -6.95,-10.95 -6.95,-17.83l0 -606.37c0,-6.88 2.32,-12.83 6.95,-17.84 4.64,-5 10.15,-7.5 16.53,-7.5l113.93 0c6.38,0 11.88,2.5 16.52,7.5 4.64,5.01 6.96,10.96 6.96,17.84l0 198.05 153.07 -202.74c4.63,-6.26 9.27,-11.27 13.92,-15.02 4.63,-3.76 11.59,-5.63 20.86,-5.63l135.68 0c5.22,0 9.71,2.03 13.48,6.1 3.77,4.06 5.65,8.91 5.65,14.55 0,3.75 -0.86,7.19 -2.61,10.32l-214.81 283.47 229.59 311.63z"/>
   <path class="fil3" d="M3908.08 917.32l569.95 327.79 -2244.5 1290.72 -569.94 -327.7 2244.49 -1290.81zm592.94 396.58l-2230.38 1282.07 -0.05 648.61 2230.38 -1281.97 0.05 -648.71zm-896.92 1265.91l-1328.77 763.75 -0.14 648.75 1328.78 -763.84 0.13 -648.66zm-509.39 1025.39l-822.52 472.83 -0.14 648.66 822.52 -472.83 0.14 -648.66zm-1471.64 -1334.61l573.22 329.52 -0.18 648.8 -573.27 -329.48 0.23 -648.84zm5.46 743.17l566.31 325.56 -0.23 648.8 -566.3 -325.47 0.22 -648.89zm-0.32 738.67l566.53 325.65 -0.22 691.59 -566.53 -325.65 0.22 -691.59zm1262.5 2103.59l-569.99 -327.79 2219.04 -1276.06 569.95 327.79 -2219 1276.06zm-615.16 -383.88l2227.06 -1280.02 0.05 -648.66 -2227.06 1280.11 -0.05 648.57zm893.55 -1263.9l1328.78 -763.84 0.04 -648.62 -1328.73 763.75 -0.09 648.71zm509.39 -1025.48l822.53 -472.84 0.14 -648.66 -822.53 472.84 -0.14 648.66zm1471.74 1338.97l-573.23 -329.52 0.18 -648.79 573.27 329.52 -0.22 648.79zm-5.42 -747.31l-566.35 -325.56 0.23 -648.8 566.35 325.47 -0.23 648.89zm0.23 -738.76l-566.53 -325.6 0.22 -679.12 566.53 325.6 -0.22 679.12z"/>
  </g>
 </g>
</svg>
