<?xml version="1.0" encoding="UTF-8"?>
<!DOCTYPE svg PUBLIC "-//W3C//DTD SVG 1.1//EN" "http://www.w3.org/Graphics/SVG/1.1/DTD/svg11.dtd">
<!-- Creator: CorelDRAW -->
<svg xmlns="http://www.w3.org/2000/svg" xml:space="preserve" width="67.7334mm" height="79.375mm" version="1.1" style="shape-rendering:geometricPrecision; text-rendering:geometricPrecision; image-rendering:optimizeQuality; fill-rule:evenodd; clip-rule:evenodd"
viewBox="0 0 6773.34 7937.5"
 xmlns:xlink="http://www.w3.org/1999/xlink"
 xmlns:xodm="http://www.corel.com/coreldraw/odm/2003">
 <defs>
  <style type="text/css">
   <![CDATA[
    .fil2 {fill:#00B4E0;fill-rule:nonzero}
    .fil1 {fill:#0D1117;fill-rule:nonzero}
    .fil0 {fill:white;fill-rule:nonzero}
   ]]>
  </style>
 </defs>
 <g id="Layer_x0020_1">
  <metadata id="CorelCorpID_0Corel-Layer"/>
  <path class="fil0" d="M727.61 4302.13l5318.12 0c402.17,0 727.6,325.44 727.6,727.6l0 2180.17c0,402.17 -325.44,727.6 -727.6,727.6l-5318.12 0c-402.17,0 -727.61,-325.44 -727.61,-727.6l0 -2180.17c0,-402.17 325.44,-727.6 727.61,-727.6z"/>
  <path class="fil1" d="M2809.73 7341.74c-1.75,15.01 -2.62,39.11 -2.62,72.27 0,38.8 0.87,67.27 2.62,85.42 2.31,31.91 12.17,58.04 29.56,78.38 17.4,20.33 44.07,30.5 80.02,30.5 33.05,0 59.58,-8.29 79.57,-24.87 20.01,-16.58 30.01,-42.71 30.01,-78.38l-73.06 0c-6.37,0 -11.88,-2.5 -16.52,-7.51 -4.64,-5 -6.95,-10.95 -6.95,-17.83l0 -99.5c0,-6.88 2.31,-12.83 6.95,-17.83 4.64,-5.01 10.15,-7.51 16.52,-7.51l210.47 0c6.38,0 11.89,2.5 16.53,7.51 4.64,5 6.96,10.95 6.96,17.83l0 120.15c0,51.94 -11.89,97.46 -35.67,136.57 -23.76,39.11 -56.09,69.15 -96.97,90.11 -40.87,20.96 -86.82,31.45 -137.84,31.45 -53.93,0 -100.89,-11.42 -140.89,-34.26 -40.01,-22.84 -71.03,-53.51 -93.06,-91.99 -22.04,-38.49 -34.21,-81.2 -36.53,-128.13 -1.16,-30.03 -1.74,-54.75 -1.74,-74.15 0,-23.15 0.58,-54.13 1.74,-92.93 1.74,-46.93 13.62,-89.64 35.66,-128.12 22.03,-38.49 53.2,-69.15 93.49,-91.99 40.3,-22.84 87.4,-34.26 141.33,-34.26 51.6,0 97.26,10.32 136.98,30.97 39.71,20.65 70.73,46.62 93.05,77.91 22.32,31.29 34.36,61.64 36.09,91.05 0.59,5.63 -1.16,10.48 -5.21,14.55 -4.06,4.07 -8.7,6.1 -13.92,6.1l-115.67 0c-7.53,0 -13.47,-2.03 -17.83,-6.1 -4.34,-4.07 -10,-10.48 -16.95,-19.24 -10.45,-13.77 -22.76,-24.72 -36.96,-32.86 -14.22,-8.13 -34.07,-12.2 -59.58,-12.2 -65.52,0 -102.05,36.3 -109.58,108.89zm729.68 -259.07c55.07,0 102.62,11.26 142.62,33.79 40.01,22.53 70.88,53.03 92.63,91.52 21.74,38.48 33.77,81.5 36.09,129.06 1.16,17.52 1.74,45.68 1.74,84.48 0,38.17 -0.58,65.71 -1.74,82.6 -2.32,47.56 -14.35,90.58 -36.09,129.07 -21.75,38.48 -52.62,68.99 -92.63,91.52 -40,22.52 -87.55,33.79 -142.62,33.79 -55.08,0 -102.63,-11.27 -142.63,-33.79 -40.01,-22.53 -70.88,-53.04 -92.63,-91.52 -21.75,-38.49 -33.77,-81.51 -36.09,-129.07 -1.16,-33.79 -1.74,-61.32 -1.74,-82.6 0,-21.27 0.58,-49.43 1.74,-84.48 2.32,-47.56 14.34,-90.58 36.09,-129.06 21.75,-38.49 52.62,-68.99 92.63,-91.52 40,-22.53 87.55,-33.79 142.63,-33.79zm110.44 259.07c-2.89,-33.17 -13.48,-59.61 -31.74,-79.32 -18.26,-19.71 -44.49,-29.57 -78.7,-29.57 -34.21,0 -60.45,9.86 -78.71,29.57 -18.26,19.71 -28.84,46.15 -31.74,79.32 -1.75,20.65 -2.62,46.62 -2.62,77.9 0,30.67 0.87,57.26 2.62,79.79 2.9,33.16 13.48,59.6 31.74,79.32 18.26,19.71 44.5,29.56 78.71,29.56 34.21,0 60.44,-9.85 78.7,-29.56 18.26,-19.72 28.85,-46.16 31.74,-79.32 1.74,-22.53 2.62,-49.12 2.62,-79.79 0,-31.28 -0.88,-57.25 -2.62,-77.9z"/>
  <path class="fil2" d="M1587.5 0l3598.34 0c876.6,0 1587.5,710.9 1587.5,1587.5l0 3598.34c0,876.59 -710.9,1587.49 -1587.5,1587.49l-3598.34 0.01c-876.59,-0.01 -1587.49,-710.91 -1587.49,-1587.51l-0.01 -3598.33c0.01,-876.6 710.91,-1587.5 1587.51,-1587.5z"/>
  <path class="fil0" d="M1079.67 2986.28c-10.59,0 -13.23,-5.3 -7.94,-13.23l55.56 -71.44c5.29,-7.94 18.52,-13.23 29.1,-13.23l944.57 0c10.58,0 13.23,7.94 7.93,15.88l-44.97 68.79c-5.3,7.93 -18.53,15.87 -26.46,15.87l-957.79 -2.64zm-399.53 243.41c-10.58,0 -13.22,-5.29 -7.93,-13.23l55.56 -71.43c5.29,-7.94 18.52,-13.23 29.1,-13.23l1206.5 0c10.59,0 15.88,7.93 13.23,15.87l-21.16 63.5c-2.65,10.59 -13.23,15.88 -23.82,15.88l-1251.48 2.64zm640.3 243.42c-10.59,0 -13.23,-7.94 -7.94,-15.88l37.04 -66.14c5.29,-7.94 15.88,-15.88 26.46,-15.88l529.17 0c10.58,0 15.87,7.94 15.87,18.52l-5.29 63.5c0,10.59 -10.58,18.53 -18.52,18.53l-576.79 -2.65zm2746.37 -534.46c-166.69,42.33 -280.46,74.08 -444.5,116.42 -39.69,10.58 -42.33,13.23 -76.73,-26.46 -39.69,-44.98 -68.79,-74.08 -124.35,-100.54 -166.69,-82.02 -328.09,-58.21 -478.9,39.69 -179.91,116.41 -272.52,288.39 -269.87,502.7 2.64,211.67 148.16,386.3 357.18,415.4 179.92,23.81 330.73,-39.69 449.8,-174.63 23.81,-29.1 44.98,-60.85 71.43,-97.89 -95.25,0 -214.31,0 -510.64,0 -55.56,0 -68.79,-34.4 -50.27,-79.38 34.39,-82.02 97.89,-219.6 134.93,-288.39 7.94,-15.88 26.46,-42.34 66.15,-42.34 134.94,0 632.36,0 963.08,0 -5.29,71.44 -5.29,142.88 -15.87,214.32 -29.1,190.5 -100.54,365.12 -216.96,518.58 -190.5,251.35 -439.21,407.46 -754.06,449.79 -259.29,34.4 -500.06,-15.87 -711.73,-174.62 -195.79,-148.17 -306.92,-343.96 -336.02,-587.38 -34.4,-288.39 50.27,-547.69 224.89,-775.23 187.86,-246.05 436.57,-402.16 740.84,-457.72 248.71,-44.98 486.83,-15.87 701.14,129.65 140.23,92.6 240.77,219.59 306.92,373.05 15.88,23.81 5.29,37.04 -26.46,44.98zm875.77 1463.15c-240.77,-5.29 -460.37,-74.09 -645.58,-232.84 -156.1,-134.93 -254,-306.91 -285.75,-510.64 -47.63,-298.98 34.4,-563.56 214.31,-799.04 193.15,-254 425.98,-386.29 740.84,-441.85 269.87,-47.62 523.87,-21.17 754.06,134.94 209.02,142.86 338.66,336.01 373.06,590.01 44.98,357.19 -58.21,648.23 -304.27,896.94 -174.63,177.27 -388.94,288.39 -635,338.66 -71.44,13.23 -142.88,15.88 -211.67,23.82zm629.71 -1068.92c-2.65,-34.4 -2.65,-60.85 -7.94,-87.31 -47.62,-261.94 -288.39,-410.11 -539.75,-351.9 -246.06,55.56 -404.81,211.67 -463.02,460.38 -47.62,206.37 52.92,415.39 243.42,500.06 145.52,63.5 291.04,55.56 431.27,-15.88 209.02,-108.47 322.79,-277.81 336.02,-505.35z"/>
 </g>
</svg>
