<?xml version="1.0" encoding="UTF-8"?>
<!DOCTYPE svg PUBLIC "-//W3C//DTD SVG 1.1//EN" "http://www.w3.org/Graphics/SVG/1.1/DTD/svg11.dtd">
<!-- Creator: CorelDRAW -->
<svg xmlns="http://www.w3.org/2000/svg" xml:space="preserve" width="67.7334mm" height="79.375mm" version="1.1" style="shape-rendering:geometricPrecision; text-rendering:geometricPrecision; image-rendering:optimizeQuality; fill-rule:evenodd; clip-rule:evenodd"
viewBox="0 0 6773.34 7937.5"
 xmlns:xlink="http://www.w3.org/1999/xlink"
 xmlns:xodm="http://www.corel.com/coreldraw/odm/2003">
 <defs>
  <style type="text/css">
   <![CDATA[
    .fil1 {fill:#0D1117;fill-rule:nonzero}
    .fil2 {fill:#242938;fill-rule:nonzero}
    .fil4 {fill:#30426B;fill-rule:nonzero}
    .fil5 {fill:#6699A1;fill-rule:nonzero}
    .fil6 {fill:#78758C;fill-rule:nonzero}
    .fil3 {fill:#8087E8;fill-rule:nonzero}
    .fil7 {fill:#A3EDBA;fill-rule:nonzero}
    .fil0 {fill:white;fill-rule:nonzero}
   ]]>
  </style>
 </defs>
 <g id="Layer_x0020_1">
  <metadata id="CorelCorpID_0Corel-Layer"/>
  <path class="fil0" d="M727.61 4302.13l5318.12 0c402.17,0 727.6,325.44 727.6,727.6l0 2180.17c0,402.17 -325.44,727.6 -727.6,727.6l-5318.12 0c-402.17,0 -727.61,-325.44 -727.61,-727.6l0 -2180.17c0,-402.17 325.44,-727.6 727.61,-727.6z"/>
  <path class="fil1" d="M892.47 7092.06c6.39,0 11.89,2.5 16.53,7.5 4.64,5.01 6.96,10.96 6.96,17.84l0 606.37c0,6.88 -2.32,12.82 -6.96,17.83 -4.64,5.01 -10.14,7.51 -16.53,7.51l-113.92 0c-6.38,0 -11.89,-2.5 -16.52,-7.51 -4.65,-5.01 -6.96,-10.95 -6.96,-17.83l0 -229.97 -193.08 0 0 229.97c0,6.88 -2.32,12.82 -6.95,17.83 -4.65,5.01 -10.15,7.51 -16.53,7.51l-113.93 0c-6.38,0 -11.89,-2.35 -16.53,-7.04 -4.63,-4.69 -6.95,-10.79 -6.95,-18.3l0 -606.37c0,-6.88 2.32,-12.83 6.95,-17.84 4.64,-5 10.15,-7.5 16.53,-7.5l113.93 0c6.38,0 11.88,2.5 16.53,7.5 4.63,5.01 6.95,10.96 6.95,17.84l0 226.21 193.08 0 0 -226.21c0,-6.88 2.31,-12.83 6.96,-17.84 4.63,-5 10.14,-7.5 16.52,-7.5l113.92 0zm168.73 657.05c-6.38,0 -11.89,-2.5 -16.53,-7.51 -4.63,-5.01 -6.95,-10.95 -6.95,-17.83l0 -606.37c0,-6.88 2.32,-12.83 6.95,-17.84 4.64,-5 10.15,-7.5 16.53,-7.5l113.93 0c6.38,0 11.88,2.5 16.52,7.5 4.64,5.01 6.96,10.96 6.96,17.84l0 606.37c0,6.88 -2.32,12.82 -6.96,17.83 -4.64,5.01 -10.14,7.51 -16.52,7.51l-113.93 0zm399.19 -407.37c-1.74,15.01 -2.61,39.11 -2.61,72.27 0,38.8 0.87,67.27 2.61,85.42 2.32,31.91 12.17,58.04 29.57,78.38 17.4,20.33 44.06,30.5 80.01,30.5 33.05,0 59.58,-8.29 79.57,-24.87 20.01,-16.58 30.02,-42.71 30.02,-78.38l-73.06 0c-6.38,0 -11.89,-2.5 -16.52,-7.51 -4.65,-5 -6.96,-10.95 -6.96,-17.83l0 -99.5c0,-6.88 2.31,-12.83 6.96,-17.83 4.63,-5.01 10.14,-7.51 16.52,-7.51l210.46 0c6.39,0 11.89,2.5 16.53,7.51 4.64,5 6.96,10.95 6.96,17.83l0 120.15c0,51.94 -11.89,97.46 -35.66,136.57 -23.77,39.11 -56.1,69.15 -96.98,90.11 -40.87,20.96 -86.81,31.45 -137.84,31.45 -53.92,0 -100.89,-11.42 -140.89,-34.26 -40.01,-22.84 -71.03,-53.51 -93.06,-91.99 -22.03,-38.49 -34.21,-81.2 -36.52,-128.13 -1.16,-30.03 -1.75,-54.75 -1.75,-74.15 0,-23.15 0.59,-54.13 1.75,-92.93 1.74,-46.93 13.62,-89.64 35.65,-128.12 22.03,-38.49 53.2,-69.15 93.5,-91.99 40.29,-22.84 87.4,-34.26 141.32,-34.26 51.6,0 97.26,10.32 136.98,30.97 39.71,20.65 70.74,46.62 93.06,77.91 22.32,31.29 34.35,61.64 36.08,91.05 0.59,5.63 -1.15,10.48 -5.21,14.55 -4.06,4.07 -8.69,6.1 -13.92,6.1l-115.67 0c-7.53,0 -13.47,-2.03 -17.82,-6.1 -4.35,-4.07 -10,-10.48 -16.96,-19.24 -10.44,-13.77 -22.76,-24.72 -36.96,-32.86 -14.21,-8.13 -34.07,-12.2 -59.58,-12.2 -65.51,0 -102.05,36.3 -109.58,108.89zm969.71 -249.68c6.39,0 11.89,2.5 16.53,7.5 4.64,5.01 6.96,10.96 6.96,17.84l0 606.37c0,6.88 -2.32,12.82 -6.96,17.83 -4.64,5.01 -10.14,7.51 -16.53,7.51l-113.93 0c-6.37,0 -11.88,-2.5 -16.52,-7.51 -4.64,-5.01 -6.95,-10.95 -6.95,-17.83l0 -229.97 -193.08 0 0 229.97c0,6.88 -2.32,12.82 -6.96,17.83 -4.64,5.01 -10.14,7.51 -16.53,7.51l-113.92 0c-6.38,0 -11.89,-2.35 -16.53,-7.04 -4.64,-4.69 -6.95,-10.79 -6.95,-18.3l0 -606.37c0,-6.88 2.31,-12.83 6.95,-17.84 4.64,-5 10.15,-7.5 16.53,-7.5l113.92 0c6.39,0 11.89,2.5 16.53,7.5 4.64,5.01 6.96,10.96 6.96,17.84l0 226.21 193.08 0 0 -226.21c0,-6.88 2.31,-12.83 6.95,-17.84 4.64,-5 10.15,-7.5 16.52,-7.5l113.93 0zm285.27 407.37c2.31,32.54 12.02,58.82 29.13,78.85 17.1,20.02 43.92,30.03 80.45,30.03 34.78,0 60,-7.19 75.66,-21.59 15.66,-14.39 26.68,-31.91 33.05,-52.56 3.48,-10.64 6.96,-17.84 10.43,-21.59 3.49,-3.75 9.86,-5.63 19.14,-5.63l113.93 0c5.22,0 9.71,2.03 13.49,6.1 3.76,4.07 5.65,8.92 5.65,14.55 -0.59,41.92 -12.91,80.57 -36.97,115.92 -24.06,35.36 -56.67,63.36 -97.84,84.01 -41.16,20.65 -86.68,30.98 -136.54,30.98 -53.92,0 -100.89,-11.42 -140.89,-34.26 -40.01,-22.84 -71.03,-53.51 -93.06,-91.99 -22.04,-38.49 -34.21,-81.2 -36.53,-128.13 -1.16,-30.03 -1.74,-54.75 -1.74,-74.15 0,-23.15 0.58,-54.13 1.74,-92.93 1.74,-46.93 13.62,-89.64 35.66,-128.12 22.03,-38.49 53.2,-69.15 93.49,-91.99 40.3,-22.84 87.41,-34.26 141.33,-34.26 49.86,0 95.38,10.32 136.54,30.97 41.17,20.65 73.78,48.66 97.84,84.01 24.06,35.36 36.38,74 36.97,115.93 0,5.63 -1.89,10.48 -5.65,14.55 -3.78,4.06 -8.27,6.1 -13.49,6.1l-113.93 0c-9.28,0 -15.65,-1.88 -19.14,-5.64 -3.47,-3.75 -6.95,-10.95 -10.43,-21.58 -6.37,-20.65 -17.39,-38.18 -33.05,-52.57 -15.66,-14.39 -40.88,-21.59 -75.66,-21.59 -36.53,0 -63.35,10.01 -80.45,30.04 -17.11,20.02 -26.82,46.31 -29.13,78.85 -1.16,21.27 -1.74,47.55 -1.74,78.84 0,30.04 0.58,56.32 1.74,78.85zm961.88 -407.37c6.38,0 11.89,2.5 16.53,7.5 4.63,5.01 6.96,10.96 6.96,17.84l0 606.37c0,6.88 -2.33,12.82 -6.96,17.83 -4.64,5.01 -10.15,7.51 -16.53,7.51l-113.93 0c-6.37,0 -11.88,-2.5 -16.52,-7.51 -4.64,-5.01 -6.96,-10.95 -6.96,-17.83l0 -229.97 -193.07 0 0 229.97c0,6.88 -2.32,12.82 -6.96,17.83 -4.64,5.01 -10.14,7.51 -16.53,7.51l-113.93 0c-6.37,0 -11.88,-2.35 -16.52,-7.04 -4.64,-4.69 -6.95,-10.79 -6.95,-18.3l0 -606.37c0,-6.88 2.31,-12.83 6.95,-17.84 4.64,-5 10.15,-7.5 16.52,-7.5l113.93 0c6.39,0 11.89,2.5 16.53,7.5 4.64,5.01 6.96,10.96 6.96,17.84l0 226.21 193.07 0 0 -226.21c0,-6.88 2.32,-12.83 6.96,-17.84 4.64,-5 10.15,-7.5 16.52,-7.5l113.93 0zm695.76 622.32c2.32,6.26 3.49,10.95 3.49,14.08 0,5.63 -1.89,10.48 -5.67,14.55 -3.76,4.07 -8.25,6.1 -13.47,6.1l-109.58 0c-9.86,0 -17.54,-2.35 -23.05,-7.04 -5.51,-4.69 -9.13,-10.17 -10.87,-16.43l-24.35 -77.9 -231.35 0 -24.35 77.9c-1.73,6.26 -5.36,11.74 -10.87,16.43 -5.51,4.69 -13.19,7.04 -23.04,7.04l-109.58 0c-5.23,0 -9.72,-2.03 -13.48,-6.1 -3.78,-4.07 -5.66,-8.92 -5.66,-14.55 0,-3.13 1.16,-7.82 3.48,-14.08l189.6 -591.35c2.89,-8.76 7.53,-16.11 13.9,-22.06 6.39,-5.94 14.79,-8.91 25.23,-8.91l140.9 0c10.43,0 18.83,2.97 25.22,8.91 6.37,5.95 11.01,13.3 13.91,22.06l189.59 591.35zm-228.72 -212.13l-70.45 -225.28 -70.45 225.28 140.9 0zm556.6 -410.19c77.7,0 138,17.99 180.9,53.97 42.91,35.98 64.36,89.64 64.36,160.98 0,90.73 -34.5,153.31 -103.5,187.73l107.85 223.39c1.73,3.76 2.6,7.2 2.6,10.33 0,5.63 -1.88,10.48 -5.65,14.55 -3.77,4.07 -8.26,6.1 -13.48,6.1l-118.28 0c-10.44,0 -18.26,-2.35 -23.48,-7.04 -5.22,-4.69 -9.56,-10.79 -13.05,-18.3l-96.53 -200.87 -80.01 0 0 200.87c0,6.88 -2.33,12.82 -6.96,17.83 -4.64,5.01 -10.14,7.51 -16.53,7.51l-113.93 0c-6.37,0 -11.88,-2.5 -16.53,-7.51 -4.63,-5.01 -6.95,-10.95 -6.95,-17.83l0 -606.37c0,-6.88 2.32,-12.83 6.95,-17.84 4.65,-5 10.16,-7.5 16.53,-7.5l235.69 0zm0 284.41c56.24,0 84.36,-23.16 84.36,-69.46 0,-46.31 -28.12,-69.46 -84.36,-69.46l-98.27 0 0 138.92 98.27 0zm792.3 -284.41c6.38,0 11.88,2.5 16.53,7.5 4.63,5.01 6.95,10.96 6.95,17.84l0 99.5c0,6.88 -2.32,12.82 -6.95,17.83 -4.65,5.01 -10.15,7.51 -16.53,7.51l-153.07 0 0 481.53c0,6.88 -2.32,12.82 -6.96,17.83 -4.64,5.01 -10.14,7.51 -16.52,7.51l-113.93 0c-6.38,0 -11.89,-2.5 -16.52,-7.51 -4.65,-5.01 -6.96,-10.95 -6.96,-17.83l0 -481.53 -153.07 0c-6.38,0 -11.89,-2.5 -16.53,-7.51 -4.63,-5.01 -6.96,-10.95 -6.96,-17.83l0 -99.5c0,-6.88 2.33,-12.83 6.96,-17.84 4.64,-5 10.15,-7.5 16.53,-7.5l467.03 0zm583.57 175.52c0,5.63 -1.89,10.48 -5.65,14.55 -3.77,4.07 -7.98,6.1 -12.61,6.1l-113.94 0c-8.11,0 -14.49,-1.09 -19.13,-3.28 -4.63,-2.19 -9.86,-6.1 -15.65,-11.74 -1.16,-1.25 -4.93,-5.47 -11.31,-12.67 -6.38,-7.19 -16.38,-13.61 -30.01,-19.24 -13.62,-5.63 -29.42,-8.45 -47.4,-8.45 -24.92,0 -45.36,3.6 -61.31,10.8 -15.94,7.19 -23.91,19.55 -23.91,37.07 0,12.52 4.93,22.37 14.78,29.57 9.86,7.2 25.08,13.61 45.66,19.24 20.59,5.64 56.39,14.08 107.41,25.35 65.52,14.39 113.64,36.92 144.37,67.58 30.73,30.66 46.09,74.47 46.09,131.41 0,41.3 -11.45,77.44 -34.35,108.41 -22.9,30.98 -54.79,54.76 -95.67,71.34 -40.87,16.59 -87.11,24.88 -138.71,24.88 -49.87,0 -95.09,-9.39 -135.68,-28.16 -40.59,-18.78 -72.47,-43.18 -95.66,-73.22 -23.19,-30.03 -35.37,-61.01 -36.54,-92.92 0,-5.64 1.89,-10.49 5.66,-14.55 3.77,-4.07 7.97,-6.1 12.62,-6.1l113.92 0c12.76,0 23.77,4.38 33.05,13.14 1.74,1.87 6.38,7.35 13.92,16.42 7.53,9.08 18.99,17.21 34.35,24.41 15.36,7.19 33.48,10.79 54.36,10.79 71.89,0 107.84,-16.58 107.84,-49.75 0,-10.63 -5.08,-19.55 -15.22,-26.75 -10.15,-7.19 -24.49,-13.3 -43.05,-18.3 -18.55,-5.01 -48.13,-12.2 -88.71,-21.59l-39.14 -8.45c-59.14,-13.76 -102.62,-36.76 -130.45,-68.99 -27.84,-32.23 -41.75,-75.25 -41.75,-129.06 0,-36.3 10.15,-69.93 30.44,-100.91 20.29,-30.97 49.14,-55.69 86.53,-74.15 37.41,-18.46 80.45,-27.69 129.15,-27.69 46.97,0 89.88,9.54 128.72,28.63 38.85,19.08 69.43,43.02 91.75,71.8 22.32,28.79 34.07,56.95 35.23,84.48z"/>
  <path class="fil2" d="M1637.77 0l3497.8 0c904.87,0 1637.77,732.9 1637.77,1637.77l0 3497.79c0,904.88 -732.9,1637.77 -1637.77,1637.77l-3497.8 0c-904.87,0 -1637.77,-732.89 -1637.77,-1637.77l0 -3497.79c0,-904.87 732.9,-1637.77 1637.77,-1637.77z"/>
  <g id="_2246581764336">
   <polygon class="fil3" points="3977.88,849.22 3096.27,2907.92 1937.86,5613.14 4631.38,4475.3 6058.1,3872.68 "/>
   <polygon class="fil4" points="4427.08,3341.5 4631.44,4475.33 6058.16,3872.71 "/>
   <polygon class="fil5" points="3977.88,849.22 4427.1,3341.58 6058.13,3872.71 "/>
   <polygon class="fil6" points="4427.08,3341.5 6058.16,3872.71 3096.33,2907.86 1937.86,5613.17 4631.47,4475.33 "/>
   <polygon class="fil7" points="1937.86,5613.14 3096.27,2907.92 715.11,2132.29 "/>
   <polygon class="fil5" points="4631.47,4475.33 4892.71,5924.11 6058.19,3872.71 "/>
   <polygon class="fil3" points="3977.88,849.22 3096.27,2907.92 4427.08,3341.58 "/>
  </g>
 </g>
</svg>
