<?xml version="1.0" encoding="UTF-8"?>
<!DOCTYPE svg PUBLIC "-//W3C//DTD SVG 1.1//EN" "http://www.w3.org/Graphics/SVG/1.1/DTD/svg11.dtd">
<!-- Creator: CorelDRAW -->
<svg xmlns="http://www.w3.org/2000/svg" xml:space="preserve" width="67.7334mm" height="79.375mm" version="1.1" style="shape-rendering:geometricPrecision; text-rendering:geometricPrecision; image-rendering:optimizeQuality; fill-rule:evenodd; clip-rule:evenodd"
viewBox="0 0 6773.34 7937.5"
 xmlns:xlink="http://www.w3.org/1999/xlink"
 xmlns:xodm="http://www.corel.com/coreldraw/odm/2003">
 <defs>
  <style type="text/css">
   <![CDATA[
    .fil3 {fill:#FEFEFE;fill-rule:nonzero}
    .fil2 {fill:#009639;fill-rule:nonzero}
    .fil4 {fill:#0D1117;fill-rule:nonzero}
    .fil1 {fill:#242938;fill-rule:nonzero}
    .fil0 {fill:white;fill-rule:nonzero}
   ]]>
  </style>
 </defs>
 <g id="Layer_x0020_1">
  <metadata id="CorelCorpID_0Corel-Layer"/>
  <g id="_1773799547952">
   <path class="fil0" d="M727.61 4302.13l5318.12 0c402.17,0 727.6,325.44 727.6,727.6l0 2180.17c0,402.17 -325.44,727.6 -727.6,727.6l-5318.12 0c-402.17,0 -727.61,-325.44 -727.61,-727.6l0 -2180.17c0,-402.17 325.44,-727.6 727.61,-727.6z"/>
   <path class="fil1" d="M1637.77 0l3497.8 0c904.87,0 1637.77,732.9 1637.77,1637.77l0 3497.79c0,904.88 -732.9,1637.77 -1637.77,1637.77l-3497.8 0c-904.87,0 -1637.77,-732.89 -1637.77,-1637.77l0 -3497.79c0,-904.87 732.9,-1637.77 1637.77,-1637.77z"/>
   <g>
    <path class="fil2" d="M1059.77 4730.08c25.29,43.84 60.9,78.03 101.99,101.2l2086.22 1204.42 0.07 -0.07c40.71,23.96 88.05,37.69 138.65,37.69 50.61,0 98.01,-13.73 138.66,-37.69l2086.29 -1204.41c41.09,-23.18 76.6,-57.3 101.92,-101.14 25.32,-43.84 37.11,-91.69 36.67,-138.89l0 -2408.83 -0.07 -0.07c0.37,-47.14 -11.39,-95.09 -36.67,-138.89 -25.32,-43.84 -60.97,-77.96 -101.98,-101.21l-2086.3 -1204.41 0 -0.07c-40.64,-23.96 -87.98,-37.69 -138.58,-37.69 -50.54,0 -97.88,13.73 -138.52,37.69l0 0.07 -2086.23 1204.41c-41.08,23.25 -76.7,57.37 -102.05,101.21 -25.28,43.83 -37.04,91.75 -36.67,138.89l-0.07 0.07 0 2408.83c-0.44,47.2 11.32,95.08 36.6,138.89l0.07 0zm0 0l0 0 0 0z"/>
   </g>
   <path class="fil3" d="M2718.72 4303.72c0,148.14 -120.1,268.3 -268.3,268.3 -148.14,0 -268.3,-120.13 -268.3,-268.3l0.07 0.07 0.27 -1841.68c0,-142.66 126.08,-260.66 304.63,-260.66 127.84,0 275.4,51.59 365.73,163.5l81.09 97.02 1120.85 1341.34 0 -1333.69 -0.14 0c0,-148.14 120.13,-268.3 268.37,-268.3 148.13,0 268.23,120.13 268.23,268.3l-0.07 0 -0.27 1841.54c0,142.67 -126.14,260.66 -304.63,260.66 -127.91,0 -275.4,-51.52 -365.73,-163.5l-1201.94 -1438.32 0 1333.82 0.14 -0.1z"/>
   <path class="fil4" d="M2295.74 7749.11c-8.71,0 -16.24,-2.35 -22.61,-7.04 -6.39,-4.69 -10.73,-9.54 -13.05,-14.55l-199.16 -321.02 0 317.27c0,6.88 -2.32,12.82 -6.96,17.83 -4.64,5.01 -10.14,7.51 -16.53,7.51l-113.92 0c-6.38,0 -11.89,-2.5 -16.53,-7.51 -4.64,-5.01 -6.95,-10.95 -6.95,-17.83l0 -606.37c0,-6.88 2.31,-12.83 6.95,-17.84 4.64,-5 10.15,-7.5 16.53,-7.5l90.44 0c8.7,0 16.24,2.34 22.61,7.03 6.39,4.7 10.73,9.55 13.05,14.55l199.16 321.02 0 -317.26c0,-6.88 2.32,-12.83 6.96,-17.84 4.64,-5 10.14,-7.5 16.53,-7.5l113.92 0c6.38,0 11.89,2.5 16.53,7.5 4.64,5.01 6.95,10.96 6.95,17.84l0 606.37c0,6.88 -2.31,12.82 -6.95,17.83 -4.64,5.01 -10.15,7.51 -16.53,7.51l-90.44 0zm375.71 -407.37c-1.74,15.01 -2.61,39.11 -2.61,72.27 0,38.8 0.87,67.27 2.61,85.42 2.32,31.91 12.17,58.04 29.57,78.38 17.4,20.33 44.06,30.5 80.01,30.5 33.05,0 59.58,-8.29 79.57,-24.87 20.01,-16.58 30.01,-42.71 30.01,-78.38l-73.05 0c-6.38,0 -11.89,-2.5 -16.52,-7.51 -4.65,-5 -6.96,-10.95 -6.96,-17.83l0 -99.5c0,-6.88 2.31,-12.83 6.96,-17.83 4.63,-5.01 10.14,-7.51 16.52,-7.51l210.46 0c6.38,0 11.89,2.5 16.53,7.51 4.64,5 6.96,10.95 6.96,17.83l0 120.15c0,51.94 -11.89,97.46 -35.66,136.57 -23.77,39.11 -56.1,69.15 -96.98,90.11 -40.87,20.96 -86.81,31.45 -137.84,31.45 -53.92,0 -100.89,-11.42 -140.89,-34.26 -40.01,-22.84 -71.03,-53.51 -93.06,-91.99 -22.03,-38.49 -34.21,-81.2 -36.53,-128.13 -1.15,-30.03 -1.74,-54.75 -1.74,-74.15 0,-23.15 0.59,-54.13 1.74,-92.93 1.75,-46.93 13.62,-89.64 35.66,-128.12 22.03,-38.49 53.2,-69.15 93.5,-91.99 40.29,-22.84 87.4,-34.26 141.32,-34.26 51.6,0 97.26,10.32 136.98,30.97 39.71,20.65 70.73,46.62 93.06,77.91 22.32,31.29 34.35,61.64 36.08,91.05 0.59,5.63 -1.15,10.48 -5.21,14.55 -4.06,4.07 -8.69,6.1 -13.92,6.1l-115.67 0c-7.53,0 -13.47,-2.03 -17.83,-6.1 -4.34,-4.07 -9.99,-10.48 -16.95,-19.24 -10.44,-13.77 -22.76,-24.72 -36.96,-32.86 -14.21,-8.13 -34.07,-12.2 -59.58,-12.2 -65.51,0 -102.05,36.3 -109.58,108.89zm501.82 407.37c-6.38,0 -11.89,-2.5 -16.53,-7.51 -4.64,-5.01 -6.95,-10.95 -6.95,-17.83l0 -606.37c0,-6.88 2.31,-12.83 6.95,-17.84 4.64,-5 10.15,-7.5 16.53,-7.5l113.92 0c6.39,0 11.89,2.5 16.53,7.5 4.64,5.01 6.96,10.96 6.96,17.84l0 606.37c0,6.88 -2.32,12.82 -6.96,17.83 -4.64,5.01 -10.14,7.51 -16.53,7.51l-113.92 0zm654.88 0c-8.7,0 -16.24,-2.35 -22.61,-7.04 -6.38,-4.69 -10.73,-9.54 -13.05,-14.55l-199.16 -321.02 0 317.27c0,6.88 -2.32,12.82 -6.95,17.83 -4.65,5.01 -10.15,7.51 -16.53,7.51l-113.93 0c-6.38,0 -11.89,-2.5 -16.53,-7.51 -4.63,-5.01 -6.95,-10.95 -6.95,-17.83l0 -606.37c0,-6.88 2.32,-12.83 6.95,-17.84 4.64,-5 10.15,-7.5 16.53,-7.5l90.45 0c8.7,0 16.23,2.34 22.6,7.03 6.39,4.7 10.73,9.55 13.05,14.55l199.16 321.02 0 -317.26c0,-6.88 2.33,-12.83 6.96,-17.84 4.64,-5 10.15,-7.5 16.53,-7.5l113.93 0c6.37,0 11.88,2.5 16.53,7.5 4.63,5.01 6.95,10.96 6.95,17.84l0 606.37c0,6.88 -2.32,12.82 -6.95,17.83 -4.65,5.01 -10.16,7.51 -16.53,7.51l-90.45 0zm371.36 -21.59c-4.64,7.51 -9.28,12.99 -13.91,16.43 -4.64,3.44 -11.89,5.16 -21.75,5.16l-132.19 0c-5.22,0 -9.72,-2.03 -13.48,-6.1 -3.77,-4.07 -5.65,-8.92 -5.65,-14.55 0,-3.75 0.86,-7.2 2.6,-10.33l200.91 -303.18 -192.21 -291.92c-1.74,-3.75 -2.61,-7.2 -2.61,-10.32 0,-5.64 1.89,-10.49 5.65,-14.55 3.77,-4.07 8.27,-6.1 13.48,-6.1l131.33 0c9.86,0 17.25,2.19 22.18,6.57 4.92,4.38 9.71,10.01 14.35,16.89l105.23 158.63 101.76 -158.63c4.64,-6.88 9.42,-12.51 14.35,-16.89 4.93,-4.38 12.32,-6.57 22.17,-6.57l133.07 0c5.22,0 9.71,2.03 13.48,6.1 3.77,4.06 5.66,8.91 5.66,14.55 0,3.12 -0.88,6.57 -2.62,10.32l-193.07 295.68 199.16 299.42c1.74,3.13 2.61,6.58 2.61,10.33 0,5.63 -1.89,10.48 -5.65,14.55 -3.77,4.07 -8.26,6.1 -13.48,6.1l-132.2 0c-9.86,0 -17.1,-1.72 -21.74,-5.16 -4.64,-3.44 -9.28,-8.92 -13.91,-16.43l-112.2 -168.96 -111.32 168.96z"/>
  </g>
 </g>
</svg>
