<svg version="1.2" xmlns="http://www.w3.org/2000/svg" viewBox="0 0 256 300" width="256" height="300">
	<title>ic_MODELO</title>
	<style>
		.s0 { fill: #ffffff } 
		.s1 { fill: #242938 } 
		.s2 { fill: #231f20 } 
		.s3 { fill: #ff4785 } 
	</style>
	<g id="Layer 1">
		<path id="&lt;Path&gt;" class="s0" d="m27.5 162.6h201c15.2 0 27.5 12.3 27.5 27.5v82.4c0 15.2-12.3 27.5-27.5 27.5h-201c-15.2 0-27.5-12.3-27.5-27.5v-82.4c0-15.2 12.3-27.5 27.5-27.5z"/>
		<path id="&lt;Path&gt;" class="s1" d="m60 0h136c33.1 0 60 26.9 60 60v136c0 33.1-26.9 60-60 60h-136c-33.1 0-60-26.9-60-60v-136c0-33.1 26.8-60 60-60z"/>
		<path id="STORYBOOK" class="s2" aria-label="STORYBOOK"  d="m37.1 292.4q-3.3 0-5.5-1-2.2-1.1-3.3-2.7-1.1-1.7-1.2-3.6 0-0.3 0.2-0.5 0.2-0.2 0.5-0.2h4.2q0.5 0 0.7 0.1 0.3 0.2 0.5 0.5 0.3 0.6 0.7 1.1 0.5 0.5 1.3 0.8 0.8 0.3 1.9 0.3 2 0 2.9-0.7 1-0.6 1-1.7 0-0.9-0.5-1.4-0.5-0.5-1.7-0.9-1.2-0.4-3.2-0.8-2.5-0.6-4.3-1.5-1.7-0.9-2.7-2.4-0.9-1.5-0.9-3.8 0-2.2 1.1-3.9 1.2-1.7 3.3-2.7 2-1 4.8-1 2.3 0 4.1 0.7 1.7 0.6 2.9 1.7 1.2 1.1 1.8 2.3 0.7 1.2 0.7 2.4 0 0.2-0.2 0.5-0.2 0.2-0.5 0.2h-4.4q-0.4 0-0.6-0.1-0.3-0.2-0.5-0.5-0.2-0.8-1.1-1.4-0.8-0.6-2.2-0.6-1.4 0-2.2 0.6-0.8 0.5-0.8 1.7 0 0.7 0.4 1.3 0.5 0.5 1.5 0.9 1 0.4 2.9 0.8 3 0.6 4.9 1.6 1.8 0.9 2.7 2.3 0.9 1.5 0.9 3.7 0 2.4-1.3 4.2-1.3 1.8-3.6 2.7-2.2 1-5.2 1zm23.5-0.4h-4.4q-0.3 0-0.6-0.3-0.2-0.2-0.2-0.6v-18.6h-5.9q-0.4 0-0.6-0.3-0.2-0.3-0.2-0.6v-3.9q0-0.4 0.2-0.6 0.2-0.3 0.6-0.3h17.9q0.4 0 0.6 0.3 0.2 0.2 0.2 0.6v3.9q0 0.3-0.2 0.6-0.2 0.3-0.6 0.3h-5.9v18.6q0 0.4-0.3 0.6-0.2 0.3-0.6 0.3zm19.8 0.4q-3.1 0-5.3-1.1-2.3-1.1-3.5-3.3-1.3-2.2-1.4-5.4-0.1-1.6-0.1-3.1 0-1.6 0.1-3.2 0.1-3.2 1.4-5.4 1.2-2.2 3.5-3.3 2.3-1.2 5.3-1.2 3 0 5.3 1.2 2.3 1.1 3.6 3.3 1.3 2.2 1.4 5.4 0 1.6 0 3.2 0 1.5 0 3.1-0.1 3.2-1.4 5.4-1.3 2.2-3.6 3.3-2.2 1.1-5.3 1.1zm0-5.2q1.8 0 2.9-1.2 1.1-1.1 1.2-3.6 0-1.6 0-3 0-1.4 0-3-0.1-1.6-0.6-2.7-0.5-1.1-1.4-1.6-0.9-0.5-2.1-0.5-1.1 0-2 0.5-0.9 0.5-1.5 1.6-0.5 1.1-0.6 2.7 0 1.6 0 3 0 1.4 0 3 0.1 2.5 1.2 3.6 1.2 1.2 2.9 1.2zm19.3 4.8h-4.3q-0.4 0-0.6-0.3-0.2-0.2-0.2-0.6v-23.4q0-0.4 0.2-0.6 0.2-0.3 0.6-0.3h9.1q4.3 0 6.7 2.2 2.5 2.1 2.5 6 0 2.6-1.1 4.3-1.2 1.8-3 2.7l4.5 8.8q0.1 0.3 0.1 0.4 0 0.3-0.2 0.6-0.2 0.2-0.5 0.2h-4.4q-0.6 0-0.9-0.3-0.3-0.4-0.4-0.7l-3.8-7.9h-3.4v8q0 0.4-0.3 0.6-0.2 0.3-0.6 0.3zm0.9-20.2v6.2h3.8q1.6 0 2.3-0.8 0.8-0.9 0.8-2.3 0-1.4-0.7-2.2-0.8-0.9-2.4-0.9zm27.2 20.2h-4.3q-0.3 0-0.6-0.3-0.2-0.2-0.2-0.6v-7.7l-7.7-15.4q-0.1-0.2-0.1-0.2 0-0.1 0-0.2 0-0.3 0.2-0.5 0.2-0.3 0.5-0.3h4.2q0.5 0 0.7 0.3 0.3 0.2 0.4 0.5l4.8 9.2 4.8-9.2q0.1-0.3 0.3-0.5 0.3-0.3 0.8-0.3h4.2q0.3 0 0.5 0.3 0.2 0.2 0.2 0.5 0 0.1 0 0.2 0 0-0.1 0.2l-7.7 15.4v7.7q0 0.4-0.3 0.6-0.2 0.3-0.6 0.3zm22.8 0h-10.4q-0.4 0-0.6-0.3-0.2-0.2-0.2-0.6v-23.4q0-0.4 0.2-0.6 0.2-0.3 0.6-0.3h10.1q2.9 0 4.7 0.9 1.9 0.8 2.7 2.4 0.9 1.6 0.9 3.8 0 1.3-0.4 2.3-0.5 1-1.1 1.7-0.7 0.6-1.2 0.9 1.2 0.6 2.2 2.1 1 1.5 1 3.5 0 2.3-1 4.1-1 1.7-2.9 2.6-1.8 0.9-4.6 0.9zm-5.3-10.6v5.9h4.7q1.4 0 2.1-0.9 0.8-0.9 0.8-2 0-1.3-0.8-2.2-0.7-0.8-2.1-0.8zm0-9.9v5.3h4.3q1.4 0 2-0.7 0.7-0.8 0.7-2 0-1.1-0.7-1.9-0.6-0.7-2-0.7zm26.9 20.9q-3 0-5.3-1.1-2.2-1.1-3.5-3.3-1.3-2.2-1.4-5.4 0-1.6 0-3.1 0-1.6 0-3.2 0.1-3.2 1.4-5.4 1.3-2.2 3.6-3.3 2.3-1.2 5.2-1.2 3.1 0 5.3 1.2 2.3 1.1 3.6 3.3 1.3 2.2 1.4 5.4 0.1 1.6 0.1 3.2 0 1.5-0.1 3.1-0.1 3.2-1.4 5.4-1.3 2.2-3.5 3.3-2.3 1.1-5.4 1.1zm0-5.2q1.8 0 2.9-1.2 1.1-1.1 1.2-3.6 0.1-1.6 0.1-3 0-1.4-0.1-3-0.1-1.6-0.6-2.7-0.5-1.1-1.4-1.6-0.9-0.5-2.1-0.5-1.1 0-2 0.5-0.9 0.5-1.4 1.6-0.5 1.1-0.6 2.7 0 1.6 0 3 0 1.4 0 3 0.1 2.5 1.2 3.6 1.1 1.2 2.8 1.2zm23.7 5.2q-3 0-5.3-1.1-2.2-1.1-3.5-3.3-1.3-2.2-1.4-5.4 0-1.6 0-3.1 0-1.6 0-3.2 0.1-3.2 1.4-5.4 1.3-2.2 3.5-3.3 2.3-1.2 5.3-1.2 3.1 0 5.3 1.2 2.3 1.1 3.6 3.3 1.3 2.2 1.4 5.4 0.1 1.6 0.1 3.2 0 1.5-0.1 3.1-0.1 3.2-1.4 5.4-1.3 2.2-3.5 3.3-2.3 1.1-5.4 1.1zm0-5.2q1.8 0 2.9-1.2 1.1-1.1 1.2-3.6 0.1-1.6 0.1-3 0-1.4-0.1-3-0.1-1.6-0.6-2.7-0.5-1.1-1.4-1.6-0.9-0.5-2.1-0.5-1.1 0-2 0.5-0.9 0.5-1.4 1.6-0.6 1.1-0.6 2.7-0.1 1.6-0.1 3 0 1.4 0.1 3 0.1 2.5 1.2 3.6 1.1 1.2 2.8 1.2zm19.2 4.8h-4.2q-0.3 0-0.6-0.3-0.2-0.2-0.2-0.6v-23.4q0-0.4 0.2-0.6 0.3-0.3 0.6-0.3h4.2q0.4 0 0.6 0.3 0.3 0.2 0.3 0.6v8l6.1-8.2q0.2-0.2 0.5-0.4 0.3-0.3 0.8-0.3h4.8q0.3 0 0.5 0.3 0.2 0.2 0.2 0.5 0 0.2-0.1 0.4l-8 10.9 8.6 11.9q0.1 0.2 0.1 0.4 0 0.3-0.2 0.6-0.2 0.2-0.5 0.2h-4.9q-0.6 0-0.9-0.3-0.3-0.3-0.4-0.4l-6.6-8.9v8.7q0 0.4-0.3 0.6-0.2 0.3-0.6 0.3z"/>
	</g>
	<path class="s3" d="m56.5 209.4l-6-159.4c-0.2-5.2 3.8-9.7 9.1-10l135.6-8.5c5.3-0.3 9.9 3.7 10.3 9.1q0 0.3 0 0.6v173.7c0 5.3-4.4 9.7-9.7 9.7q-0.3 0-0.5 0l-129.5-5.8c-5.1-0.3-9.1-4.3-9.3-9.4z"/>
	<path fill-rule="evenodd" class="s0" d="m184.5 32.2l-18.7 1.1-0.9 21.9q0 0.6 0.3 1c0.5 0.6 1.4 0.7 2.1 0.2l8.5-6.4 7.1 5.7q0.5 0.3 1 0.3c0.8-0.1 1.4-0.7 1.4-1.5zm-53.6 34c-25.3 0-39.4 13.7-39.4 34.3 0 20.6 16 29.6 29.6 37.3 10 5.6 18.8 10.5 18.8 18.8 0 5.5-2.7 8.8-8.7 8.8-7.7 0-10.7-4-10.3-17.3 0-3-29.4-3.9-30.3 0-2.3 32.4 17.9 41.7 41 41.7 22.4 0 40-11.9 40-33.5 0-22.6-16.9-31.5-30.9-38.9-9.9-5.3-18.2-9.7-18.2-17.6 0-7.7 5.7-8.7 9.1-8.7 3.6 0 10 0.6 9.5 15 0 3.8 25.4 2 28.9-0.7 0-25.7-13.8-39.2-39.1-39.2z"/>
</svg>